<?xml version="1.0" encoding="UTF-8" standalone="no"?>
<!DOCTYPE svg PUBLIC "-//W3C//DTD SVG 1.1//EN"
 "http://www.w3.org/Graphics/SVG/1.1/DTD/svg11.dtd">
<!-- Generated by graphviz version 14.1.5 (20260411.2331)
 -->
<!-- Title: control_plane Pages: 1 -->
<svg width="1293pt" height="953pt"
 viewBox="29.00 29.00 1265.00 924.00" xmlns="http://www.w3.org/2000/svg" xmlns:xlink="http://www.w3.org/1999/xlink">
<g id="graph0" class="graph" transform="scale(1 1) rotate(0) translate(57.6 895.28)">
<title>control_plane</title>
<polygon fill="#fdfdfc" stroke="none" points="-28.8,28.8 -28.8,-866.48 1206.9,-866.48 1206.9,28.8 -28.8,28.8"/>
<text xml:space="preserve" text-anchor="start" x="274.43" y="-41.9" font-family="Helvetica,sans-Serif" font-weight="bold" font-size="18.00">Figure 2 · Control&#45;plane interposition at the tool&#45;call boundary — v1.0 RC</text>
<text xml:space="preserve" text-anchor="start" x="271.8" y="-16.55" font-family="Helvetica,sans-Serif" font-size="11.00" fill="#5c5c5c">Tool&#45;call intents cross </text>
<text xml:space="preserve" text-anchor="start" x="376.8" y="-16.55" font-family="Helvetica,sans-Serif" font-weight="bold" font-size="11.00" fill="#5c5c5c">doxa → episteme</text>
<text xml:space="preserve" text-anchor="start" x="466.8" y="-16.55" font-family="Helvetica,sans-Serif" font-size="11.00" fill="#5c5c5c"> at PreToolUse; Pillar 1 selects a blueprint and Layers 2–4 + BP&#45;D validators admit or reject.</text>
<text xml:space="preserve" text-anchor="start" x="322.43" y="-5.55" font-family="Helvetica,sans-Serif" font-size="11.00" fill="#5c5c5c">PASS stamps a correlation id; Pillar 2 hash&#45;chains the decision; Pillar 3 surfaces active guidance on the next op.</text>
<g id="clust1" class="cluster">
<title>cluster_doxa</title>
<path fill="#fdfdfc" stroke="#9a9a9a" stroke-width="0.7" stroke-dasharray="5,2" d="M157,-717.9C157,-717.9 703,-717.9 703,-717.9 709,-717.9 715,-723.9 715,-729.9 715,-729.9 715,-817.68 715,-817.68 715,-823.68 709,-829.68 703,-829.68 703,-829.68 157,-829.68 157,-829.68 151,-829.68 145,-823.68 145,-817.68 145,-817.68 145,-729.9 145,-729.9 145,-723.9 151,-717.9 157,-717.9"/>
<text xml:space="preserve" text-anchor="start" x="366.25" y="-724.65" font-family="Helvetica,sans-Serif" font-weight="bold" font-size="10.00" fill="#5c5c5c">DOXA</text>
<text xml:space="preserve" text-anchor="start" x="395.5" y="-724.65" font-family="Helvetica,sans-Serif" font-weight="bold" font-size="10.00" fill="#5c5c5c"> &#160;· &#160;AGENT RUNTIME</text>
</g>
<g id="clust3" class="cluster">
<title>cluster_episteme</title>
<path fill="#fdfdfc" stroke="#7a2e2a" stroke-width="0.9" stroke-dasharray="5,2" d="M20,-213.78C20,-213.78 932,-213.78 932,-213.78 938,-213.78 944,-219.78 944,-225.78 944,-225.78 944,-670.4 944,-670.4 944,-676.4 938,-682.4 932,-682.4 932,-682.4 20,-682.4 20,-682.4 14,-682.4 8,-676.4 8,-670.4 8,-670.4 8,-225.78 8,-225.78 8,-219.78 14,-213.78 20,-213.78"/>
<text xml:space="preserve" text-anchor="start" x="329" y="-220.53" font-family="Helvetica,sans-Serif" font-weight="bold" font-size="10.00" fill="#7a2e2a">EPISTEME</text>
<text xml:space="preserve" text-anchor="start" x="380" y="-220.53" font-family="Helvetica,sans-Serif" font-weight="bold" font-size="10.00" fill="#7a2e2a"> &#160;· &#160;CONTROL PLANE &#160;· &#160;three pillars · p95 &lt; 100 ms</text>
</g>
<g id="clust4" class="cluster">
<title>cluster_ep_row1</title>
<path fill="#fdfdfc" stroke="none" stroke-width="0.9" stroke-dasharray="5,2" d="M110,-614.12C110,-614.12 688,-614.12 688,-614.12 694,-614.12 700,-620.12 700,-626.12 700,-626.12 700,-648.4 700,-648.4 700,-654.4 694,-660.4 688,-660.4 688,-660.4 110,-660.4 110,-660.4 104,-660.4 98,-654.4 98,-648.4 98,-648.4 98,-626.12 98,-626.12 98,-620.12 104,-614.12 110,-614.12"/>
</g>
<g id="clust6" class="cluster">
<title>cluster_ep_row2</title>
<path fill="#fdfdfc" stroke="none" stroke-width="0.9" stroke-dasharray="5,2" d="M100,-504.09C100,-504.09 687,-504.09 687,-504.09 693,-504.09 699,-510.09 699,-516.09 699,-516.09 699,-538.37 699,-538.37 699,-544.37 693,-550.37 687,-550.37 687,-550.37 100,-550.37 100,-550.37 94,-550.37 88,-544.37 88,-538.37 88,-538.37 88,-516.09 88,-516.09 88,-510.09 94,-504.09 100,-504.09"/>
</g>
<g id="clust8" class="cluster">
<title>cluster_ep_row3</title>
<path fill="#fdfdfc" stroke="none" stroke-width="0.9" stroke-dasharray="5,2" d="M42,-384.31C42,-384.31 879,-384.31 879,-384.31 885,-384.31 891,-390.31 891,-396.31 891,-396.31 891,-418.59 891,-418.59 891,-424.59 885,-430.59 879,-430.59 879,-430.59 42,-430.59 42,-430.59 36,-430.59 30,-424.59 30,-418.59 30,-418.59 30,-396.31 30,-396.31 30,-390.31 36,-384.31 42,-384.31"/>
</g>
<g id="clust10" class="cluster">
<title>cluster_ep_row4</title>
<path fill="#fdfdfc" stroke="none" stroke-width="0.9" stroke-dasharray="5,2" d="M42,-274.28C42,-274.28 797,-274.28 797,-274.28 803,-274.28 809,-280.28 809,-286.28 809,-286.28 809,-308.56 809,-308.56 809,-314.56 803,-320.56 797,-320.56 797,-320.56 42,-320.56 42,-320.56 36,-320.56 30,-314.56 30,-308.56 30,-308.56 30,-286.28 30,-286.28 30,-280.28 36,-274.28 42,-274.28"/>
</g>
<g id="clust12" class="cluster">
<title>cluster_praxis</title>
<path fill="#fdfdfc" stroke="#9a9a9a" stroke-width="0.7" stroke-dasharray="5,2" d="M126,-84C126,-84 531,-84 531,-84 537,-84 543,-90 543,-96 543,-96 543,-183.78 543,-183.78 543,-189.78 537,-195.78 531,-195.78 531,-195.78 126,-195.78 126,-195.78 120,-195.78 114,-189.78 114,-183.78 114,-183.78 114,-96 114,-96 114,-90 120,-84 126,-84"/>
<text xml:space="preserve" text-anchor="start" x="215.62" y="-90.75" font-family="Helvetica,sans-Serif" font-weight="bold" font-size="10.00" fill="#5c5c5c">PRAXIS</text>
<text xml:space="preserve" text-anchor="start" x="253.88" y="-90.75" font-family="Helvetica,sans-Serif" font-weight="bold" font-size="10.00" fill="#5c5c5c"> &#160;· &#160;HARDWARE · OPERATING SYSTEM</text>
</g>
<!-- doxa_llm -->
<g id="node1" class="node">
<title>doxa_llm</title>
<path fill="white" stroke="#1a1a1a" stroke-width="0.9" d="M274.71,-811.68C274.71,-811.68 175.29,-811.68 175.29,-811.68 169.29,-811.68 163.29,-805.68 163.29,-799.68 163.29,-799.68 163.29,-786.4 163.29,-786.4 163.29,-780.4 169.29,-774.4 175.29,-774.4 175.29,-774.4 274.71,-774.4 274.71,-774.4 280.71,-774.4 286.71,-780.4 286.71,-786.4 286.71,-786.4 286.71,-799.68 286.71,-799.68 286.71,-805.68 280.71,-811.68 274.71,-811.68"/>
<text xml:space="preserve" text-anchor="start" x="186" y="-793.59" font-family="Helvetica,sans-Serif" font-weight="bold" font-size="11.00" fill="#1a1a1a">LLM reasoning</text>
<text xml:space="preserve" text-anchor="start" x="176.25" y="-784.49" font-family="Helvetica,sans-Serif" font-size="9.00" fill="#5c5c5c">tokens → tool&#45;call intent</text>
</g>
<!-- doxa_disp -->
<g id="node2" class="node">
<title>doxa_disp</title>
<path fill="white" stroke="#1a1a1a" stroke-width="0.9" d="M471.58,-811.68C471.58,-811.68 356.42,-811.68 356.42,-811.68 350.42,-811.68 344.42,-805.68 344.42,-799.68 344.42,-799.68 344.42,-786.4 344.42,-786.4 344.42,-780.4 350.42,-774.4 356.42,-774.4 356.42,-774.4 471.58,-774.4 471.58,-774.4 477.58,-774.4 483.58,-780.4 483.58,-786.4 483.58,-786.4 483.58,-799.68 483.58,-799.68 483.58,-805.68 477.58,-811.68 471.58,-811.68"/>
<text xml:space="preserve" text-anchor="start" x="373.88" y="-793.59" font-family="Helvetica,sans-Serif" font-weight="bold" font-size="11.00" fill="#1a1a1a">Tool dispatcher</text>
<text xml:space="preserve" text-anchor="start" x="357.38" y="-784.49" font-family="Helvetica,sans-Serif" font-size="9.00" fill="#5c5c5c">Bash · Write · Edit · MultiEdit</text>
</g>
<!-- doxa_llm&#45;&gt;doxa_disp -->
<!-- doxa_env -->
<g id="node3" class="node">
<title>doxa_env</title>
<path fill="white" stroke="#1a1a1a" stroke-width="0.9" d="M684.84,-811.68C684.84,-811.68 553.16,-811.68 553.16,-811.68 547.16,-811.68 541.16,-805.68 541.16,-799.68 541.16,-799.68 541.16,-786.4 541.16,-786.4 541.16,-780.4 547.16,-774.4 553.16,-774.4 553.16,-774.4 684.84,-774.4 684.84,-774.4 690.84,-774.4 696.84,-780.4 696.84,-786.4 696.84,-786.4 696.84,-799.68 696.84,-799.68 696.84,-805.68 690.84,-811.68 684.84,-811.68"/>
<text xml:space="preserve" text-anchor="start" x="571.75" y="-793.59" font-family="Helvetica,sans-Serif" font-weight="bold" font-size="11.00" fill="#1a1a1a">Tool&#45;use envelope</text>
<text xml:space="preserve" text-anchor="start" x="554.12" y="-784.49" font-family="Helvetica,sans-Serif" font-size="9.00" fill="#5c5c5c">stdin JSON → PreToolUse hook</text>
</g>
<!-- doxa_disp&#45;&gt;doxa_env -->
<!-- guard -->
<g id="node4" class="node">
<title>guard</title>
<path fill="white" stroke="#7a2e2a" stroke-width="1.4" d="M687.84,-660.4C687.84,-660.4 550.16,-660.4 550.16,-660.4 544.16,-660.4 538.16,-654.4 538.16,-648.4 538.16,-648.4 538.16,-626.12 538.16,-626.12 538.16,-620.12 544.16,-614.12 550.16,-614.12 550.16,-614.12 687.84,-614.12 687.84,-614.12 693.84,-614.12 699.84,-620.12 699.84,-626.12 699.84,-626.12 699.84,-648.4 699.84,-648.4 699.84,-654.4 693.84,-660.4 687.84,-660.4"/>
<text xml:space="preserve" text-anchor="start" x="551.12" y="-642.31" font-family="Helvetica,sans-Serif" font-weight="bold" font-size="11.00" fill="#1a1a1a">Reasoning&#45;Surface Guard</text>
<text xml:space="preserve" text-anchor="start" x="560.5" y="-633.21" font-family="Helvetica,sans-Serif" font-size="9.00" fill="#7a2e2a">PreToolUse · STRICT default</text>
<text xml:space="preserve" text-anchor="start" x="558.25" y="-624.21" font-family="Helvetica,sans-Serif" font-size="9.00" fill="#5c5c5c">K · U · A · D · verification_trace</text>
</g>
<!-- doxa_env&#45;&gt;guard -->
<g id="edge33" class="edge">
<title>doxa_env&#45;&gt;guard</title>
<path fill="none" stroke="#1a1a1a" stroke-width="0.9" d="M618.32,-774.05C617.64,-753.73 616.76,-719.69 617.25,-690.4 617.37,-683.5 617.57,-676.09 617.79,-669.08"/>
<polygon fill="#1a1a1a" stroke="#1a1a1a" stroke-width="0.9" points="618.03,-662.19 620.94,-669.3 617.95,-664.6 617.79,-669.19 617.79,-669.19 617.79,-669.19 617.95,-664.6 614.64,-669.08 618.03,-662.19"/>
<text xml:space="preserve" text-anchor="middle" x="649.12" y="-701.35" font-family="Helvetica,sans-Serif" font-size="9.00" fill="#5c5c5c">PreToolUse</text>
<text xml:space="preserve" text-anchor="middle" x="649.12" y="-691.6" font-family="Helvetica,sans-Serif" font-size="9.00" fill="#5c5c5c">cp7&#45;chained&#45;v1</text>
</g>
<!-- guard&#45;&gt;doxa_disp -->
<g id="edge34" class="edge">
<title>guard&#45;&gt;doxa_disp</title>
<path fill="none" stroke="#7a2e2a" stroke-width="1.4" d="M660.73,-661.09C681.51,-675.29 699.27,-693.83 684,-709.9 671.97,-722.56 543.6,-712.48 527,-717.9 494.4,-728.55 462.18,-751.21 440.54,-768.7"/>
<polygon fill="#7a2e2a" stroke="#7a2e2a" stroke-width="1.4" points="435.22,-773.08 438.62,-766.2 436.48,-771.79 440.49,-768.48 440.62,-768.63 440.75,-768.79 436.73,-772.1 442.63,-771.06 435.22,-773.08"/>
<text xml:space="preserve" text-anchor="start" x="689.73" y="-697.48" font-family="Helvetica,sans-Serif" font-weight="bold" font-size="9.00" fill="#7a2e2a">BLOCK · exit 2</text>
</g>
<!-- interceptor -->
<g id="node5" class="node">
<title>interceptor</title>
<path fill="white" stroke="#1a1a1a" stroke-width="0.9" d="M452.33,-660.4C452.33,-660.4 305.67,-660.4 305.67,-660.4 299.67,-660.4 293.67,-654.4 293.67,-648.4 293.67,-648.4 293.67,-626.12 293.67,-626.12 293.67,-620.12 299.67,-614.12 305.67,-614.12 305.67,-614.12 452.33,-614.12 452.33,-614.12 458.33,-614.12 464.33,-620.12 464.33,-626.12 464.33,-626.12 464.33,-648.4 464.33,-648.4 464.33,-654.4 458.33,-660.4 452.33,-660.4"/>
<text xml:space="preserve" text-anchor="start" x="328.38" y="-642.31" font-family="Helvetica,sans-Serif" font-weight="bold" font-size="11.00" fill="#1a1a1a">Stateful Interceptor</text>
<text xml:space="preserve" text-anchor="start" x="312.62" y="-633.21" font-family="Helvetica,sans-Serif" font-size="9.00" fill="#5c5c5c">PostToolUse · cross&#45;call memory</text>
<text xml:space="preserve" text-anchor="start" x="306.62" y="-624.21" font-family="Helvetica,sans-Serif" font-size="9.00" fill="#5c5c5c">sha256 + ts · deep&#45;scan on execute</text>
</g>
<!-- guard&#45;&gt;interceptor -->
<!-- selector -->
<g id="node7" class="node">
<title>selector</title>
<path fill="white" stroke="#2c6e49" stroke-width="1.2" d="M687.34,-550.37C687.34,-550.37 546.66,-550.37 546.66,-550.37 540.66,-550.37 534.66,-544.37 534.66,-538.37 534.66,-538.37 534.66,-516.09 534.66,-516.09 534.66,-510.09 540.66,-504.09 546.66,-504.09 546.66,-504.09 687.34,-504.09 687.34,-504.09 693.34,-504.09 699.34,-510.09 699.34,-516.09 699.34,-516.09 699.34,-538.37 699.34,-538.37 699.34,-544.37 693.34,-550.37 687.34,-550.37"/>
<text xml:space="preserve" text-anchor="start" x="560.75" y="-532.28" font-family="Helvetica,sans-Serif" font-weight="bold" font-size="11.00" fill="#1a1a1a">Blueprint Selector</text>
<text xml:space="preserve" text-anchor="start" x="656" y="-532.28" font-family="Helvetica,sans-Serif" font-size="11.00" fill="#1a1a1a"> &#160;</text>
<text xml:space="preserve" text-anchor="start" x="662" y="-532.28" font-family="Helvetica,sans-Serif" font-weight="bold" font-size="9.00" fill="#2c6e49">P1</text>
<text xml:space="preserve" text-anchor="start" x="547.62" y="-523.18" font-family="Helvetica,sans-Serif" font-size="9.00" fill="#5c5c5c">Axiomatic · Fence · Conseq&#45;Chain</text>
<text xml:space="preserve" text-anchor="start" x="558.5" y="-514.18" font-family="Helvetica,sans-Serif" font-size="9.00" fill="#5c5c5c">Blueprint D · generic fallback</text>
</g>
<!-- guard&#45;&gt;selector -->
<!-- praxis_state -->
<g id="node19" class="node">
<title>praxis_state</title>
<path fill="white" stroke="#1a1a1a" stroke-width="0.9" d="M512.84,-177.78C512.84,-177.78 429.17,-177.78 429.17,-177.78 423.17,-177.78 417.17,-171.78 417.17,-165.78 417.17,-165.78 417.17,-152.5 417.17,-152.5 417.17,-146.5 423.17,-140.5 429.17,-140.5 429.17,-140.5 512.84,-140.5 512.84,-140.5 518.84,-140.5 524.84,-146.5 524.84,-152.5 524.84,-152.5 524.84,-165.78 524.84,-165.78 524.84,-171.78 518.84,-177.78 512.84,-177.78"/>
<text xml:space="preserve" text-anchor="start" x="430.12" y="-159.69" font-family="Helvetica,sans-Serif" font-weight="bold" font-size="11.00" fill="#1a1a1a">Persistent state</text>
<text xml:space="preserve" text-anchor="start" x="432.75" y="-150.59" font-family="Helvetica,sans-Serif" font-size="9.00" fill="#5c5c5c">fs · git tree · lockfile</text>
</g>
<!-- guard&#45;&gt;praxis_state -->
<g id="edge36" class="edge">
<title>guard&#45;&gt;praxis_state</title>
<path fill="none" stroke="#1a1a1a" stroke-width="0.9" d="M700.38,-618.78C819.16,-592.71 1026,-544.91 1026,-528.23 1026,-528.23 1026,-528.23 1026,-296.42 1026,-249.14 1000.51,-236.43 959,-213.78 887.03,-174.51 647.63,-163.97 533.1,-161.16"/>
<polygon fill="#1a1a1a" stroke="#1a1a1a" stroke-width="0.9" points="526.17,-160.99 533.24,-158.01 528.57,-161.05 533.16,-161.16 533.16,-161.16 533.16,-161.16 528.57,-161.05 533.09,-164.31 526.17,-160.99"/>
<text xml:space="preserve" text-anchor="middle" x="1072.88" y="-408.65" font-family="Helvetica,sans-Serif" font-size="9.00" fill="#5c5c5c">PASS · exit 0</text>
<text xml:space="preserve" text-anchor="middle" x="1072.88" y="-398.9" font-family="Helvetica,sans-Serif" font-size="9.00" fill="#5c5c5c">correlation_id stamped</text>
</g>
<!-- interceptor&#45;&gt;guard -->
<g id="edge41" class="edge">
<title>interceptor&#45;&gt;guard</title>
<path fill="none" stroke="#1a1a1a" stroke-width="0.9" stroke-dasharray="5,2" d="M464.63,-637.26C485.76,-637.26 508.44,-637.26 529.73,-637.26"/>
<polygon fill="#1a1a1a" stroke="#1a1a1a" stroke-width="0.9" points="536.73,-637.26 529.73,-640.41 534.32,-637.26 529.73,-637.26 529.73,-637.26 529.73,-637.26 534.32,-637.26 529.73,-634.11 536.73,-637.26"/>
<text xml:space="preserve" text-anchor="middle" x="501.25" y="-651.21" font-family="Helvetica,sans-Serif" font-size="9.00" fill="#5c5c5c">deep&#45;scan</text>
<text xml:space="preserve" text-anchor="middle" x="501.25" y="-641.46" font-family="Helvetica,sans-Serif" font-size="9.00" fill="#5c5c5c">on execute</text>
</g>
<!-- telemetry -->
<g id="node6" class="node">
<title>telemetry</title>
<path fill="white" stroke="#1a1a1a" stroke-width="0.9" d="M223.83,-660.4C223.83,-660.4 110.17,-660.4 110.17,-660.4 104.17,-660.4 98.17,-654.4 98.17,-648.4 98.17,-648.4 98.17,-626.12 98.17,-626.12 98.17,-620.12 104.17,-614.12 110.17,-614.12 110.17,-614.12 223.83,-614.12 223.83,-614.12 229.83,-614.12 235.83,-620.12 235.83,-626.12 235.83,-626.12 235.83,-648.4 235.83,-648.4 235.83,-654.4 229.83,-660.4 223.83,-660.4"/>
<text xml:space="preserve" text-anchor="start" x="111.12" y="-642.31" font-family="Helvetica,sans-Serif" font-weight="bold" font-size="11.00" fill="#1a1a1a">Calibration Telemetry</text>
<text xml:space="preserve" text-anchor="start" x="114.12" y="-633.21" font-family="Helvetica,sans-Serif" font-size="9.00" fill="#5c5c5c">pre ⇄ post · correlation_id</text>
<text xml:space="preserve" text-anchor="start" x="111.88" y="-624.21" font-family="Helvetica,sans-Serif" font-size="9.00" fill="#5c5c5c">exit_code · stderr · duration</text>
</g>
<!-- interceptor&#45;&gt;telemetry -->
<!-- cascade -->
<g id="node8" class="node">
<title>cascade</title>
<path fill="white" stroke="#2c6e49" stroke-width="1.2" d="M464.83,-550.37C464.83,-550.37 315.17,-550.37 315.17,-550.37 309.17,-550.37 303.17,-544.37 303.17,-538.37 303.17,-538.37 303.17,-516.09 303.17,-516.09 303.17,-510.09 309.17,-504.09 315.17,-504.09 315.17,-504.09 464.83,-504.09 464.83,-504.09 470.83,-504.09 476.83,-510.09 476.83,-516.09 476.83,-516.09 476.83,-538.37 476.83,-538.37 476.83,-544.37 470.83,-550.37 464.83,-550.37"/>
<text xml:space="preserve" text-anchor="start" x="319.88" y="-532.28" font-family="Helvetica,sans-Serif" font-weight="bold" font-size="11.00" fill="#1a1a1a">Cascade Detector</text>
<text xml:space="preserve" text-anchor="start" x="412.88" y="-532.28" font-family="Helvetica,sans-Serif" font-size="11.00" fill="#1a1a1a"> &#160;</text>
<text xml:space="preserve" text-anchor="start" x="418.88" y="-532.28" font-family="Helvetica,sans-Serif" font-weight="bold" font-size="9.00" fill="#2c6e49">P1 · CP10</text>
<text xml:space="preserve" text-anchor="start" x="337.88" y="-523.18" font-family="Helvetica,sans-Serif" font-size="9.00" fill="#5c5c5c">4 triggers · self&#45;escalation</text>
<text xml:space="preserve" text-anchor="start" x="316.12" y="-514.18" font-family="Helvetica,sans-Serif" font-size="9.00" fill="#5c5c5c">sensitive&#45;path · cross&#45;ref · generated</text>
</g>
<!-- interceptor&#45;&gt;cascade -->
<!-- validator -->
<g id="node9" class="node">
<title>validator</title>
<path fill="white" stroke="#2c6e49" stroke-width="1.2" d="M233.58,-550.37C233.58,-550.37 100.42,-550.37 100.42,-550.37 94.42,-550.37 88.42,-544.37 88.42,-538.37 88.42,-538.37 88.42,-516.09 88.42,-516.09 88.42,-510.09 94.42,-504.09 100.42,-504.09 100.42,-504.09 233.58,-504.09 233.58,-504.09 239.58,-504.09 245.58,-510.09 245.58,-516.09 245.58,-516.09 245.58,-538.37 245.58,-538.37 245.58,-544.37 239.58,-550.37 233.58,-550.37"/>
<text xml:space="preserve" text-anchor="start" x="109.25" y="-532.28" font-family="Helvetica,sans-Serif" font-weight="bold" font-size="11.00" fill="#1a1a1a">Blueprint Validator</text>
<text xml:space="preserve" text-anchor="start" x="207.5" y="-532.28" font-family="Helvetica,sans-Serif" font-size="11.00" fill="#1a1a1a"> &#160;</text>
<text xml:space="preserve" text-anchor="start" x="213.5" y="-532.28" font-family="Helvetica,sans-Serif" font-weight="bold" font-size="9.00" fill="#2c6e49">P1</text>
<text xml:space="preserve" text-anchor="start" x="101.38" y="-523.18" font-family="Helvetica,sans-Serif" font-size="9.00" fill="#5c5c5c">L2 classify · L3 ground · L4 trace</text>
<text xml:space="preserve" text-anchor="start" x="112.25" y="-514.18" font-family="Helvetica,sans-Serif" font-size="9.00" fill="#5c5c5c">BP&#45;D 6&#45;field · Fence 5&#45;field</text>
</g>
<!-- telemetry&#45;&gt;validator -->
<!-- chain -->
<g id="node10" class="node">
<title>chain</title>
<path fill="white" stroke="#1f4e79" stroke-width="1.2" d="M683.96,-430.59C683.96,-430.59 550.04,-430.59 550.04,-430.59 544.04,-430.59 538.04,-424.59 538.04,-418.59 538.04,-418.59 538.04,-396.31 538.04,-396.31 538.04,-390.31 544.04,-384.31 550.04,-384.31 550.04,-384.31 683.96,-384.31 683.96,-384.31 689.96,-384.31 695.96,-390.31 695.96,-396.31 695.96,-396.31 695.96,-418.59 695.96,-418.59 695.96,-424.59 689.96,-430.59 683.96,-430.59"/>
<text xml:space="preserve" text-anchor="start" x="563" y="-412.5" font-family="Helvetica,sans-Serif" font-weight="bold" font-size="11.00" fill="#1a1a1a">Chain Writer</text>
<text xml:space="preserve" text-anchor="start" x="629" y="-412.5" font-family="Helvetica,sans-Serif" font-size="11.00" fill="#1a1a1a"> &#160;</text>
<text xml:space="preserve" text-anchor="start" x="635" y="-412.5" font-family="Helvetica,sans-Serif" font-weight="bold" font-size="9.00" fill="#1f4e79">P2 · CP7</text>
<text xml:space="preserve" text-anchor="start" x="564.88" y="-403.4" font-family="Helvetica,sans-Serif" font-size="9.00" fill="#5c5c5c">cp7&#45;chained&#45;v1 envelope</text>
<text xml:space="preserve" text-anchor="start" x="551" y="-394.4" font-family="Helvetica,sans-Serif" font-size="9.00" fill="#5c5c5c">SHA&#45;256 · prev_hash · fcntl.flock</text>
</g>
<!-- telemetry&#45;&gt;chain -->
<g id="edge26" class="edge">
<title>telemetry&#45;&gt;chain</title>
<path fill="none" stroke="#1a1a1a" stroke-width="0.9" d="M236.01,-620.1C293.73,-607.05 378.37,-589.01 453,-577.37 508.87,-568.66 668.2,-592.42 706,-550.37 738.07,-514.69 691.86,-466.07 654.93,-435.99"/>
<polygon fill="#1a1a1a" stroke="#1a1a1a" stroke-width="0.9" points="649.49,-431.65 656.93,-433.56 651.37,-433.15 654.96,-436.02 654.96,-436.02 654.96,-436.02 651.37,-433.15 653,-438.48 649.49,-431.65"/>
<text xml:space="preserve" text-anchor="middle" x="735.9" y="-528.43" font-family="Helvetica,sans-Serif" font-size="9.00" fill="#5c5c5c">write</text>
<text xml:space="preserve" text-anchor="middle" x="735.9" y="-518.68" font-family="Helvetica,sans-Serif" font-size="9.00" fill="#5c5c5c">envelope</text>
</g>
<!-- selector&#45;&gt;cascade -->
<!-- selector&#45;&gt;validator -->
<g id="edge23" class="edge">
<title>selector&#45;&gt;validator</title>
<path fill="none" stroke="#1a1a1a" stroke-width="0.9" d="M576.26,-550.92C555.85,-561.44 530.33,-572.63 505.88,-577.95 414.88,-597.74 308.45,-574.36 239.49,-553.21"/>
<polygon fill="#1a1a1a" stroke="#1a1a1a" stroke-width="0.9" points="233.15,-551.23 240.77,-550.31 235.45,-551.95 239.84,-553.31 239.84,-553.31 239.84,-553.31 235.45,-551.95 238.9,-556.32 233.15,-551.23"/>
<text xml:space="preserve" text-anchor="middle" x="480" y="-578.57" font-family="Helvetica,sans-Serif" font-size="9.00" fill="#5c5c5c">field contract</text>
</g>
<!-- selector&#45;&gt;chain -->
<!-- cascade&#45;&gt;validator -->
<!-- cascade&#45;&gt;validator -->
<g id="edge24" class="edge">
<title>cascade&#45;&gt;validator</title>
<path fill="none" stroke="#1a1a1a" stroke-width="0.9" d="M302.82,-527.23C286.71,-527.23 269.88,-527.23 253.78,-527.23"/>
<polygon fill="#1a1a1a" stroke="#1a1a1a" stroke-width="0.9" points="247.03,-527.23 254.03,-524.08 249.44,-527.23 254.03,-527.23 254.03,-527.23 254.03,-527.23 249.44,-527.23 254.03,-530.38 247.03,-527.23"/>
<text xml:space="preserve" text-anchor="middle" x="274.38" y="-531.43" font-family="Helvetica,sans-Serif" font-size="9.00" fill="#5c5c5c">BP&#45;D</text>
</g>
<!-- protocols -->
<g id="node11" class="node">
<title>protocols</title>
<path fill="white" stroke="#1f4e79" stroke-width="1.2" d="M468.58,-430.59C468.58,-430.59 311.42,-430.59 311.42,-430.59 305.42,-430.59 299.42,-424.59 299.42,-418.59 299.42,-418.59 299.42,-396.31 299.42,-396.31 299.42,-390.31 305.42,-384.31 311.42,-384.31 311.42,-384.31 468.58,-384.31 468.58,-384.31 474.58,-384.31 480.58,-390.31 480.58,-396.31 480.58,-396.31 480.58,-418.59 480.58,-418.59 480.58,-424.59 474.58,-430.59 468.58,-430.59"/>
<text xml:space="preserve" text-anchor="start" x="312.38" y="-412.5" font-family="Helvetica,sans-Serif" font-weight="bold" font-size="11.00" fill="#1a1a1a">protocols.jsonl</text>
<text xml:space="preserve" text-anchor="start" x="391.12" y="-412.5" font-family="Helvetica,sans-Serif" font-size="11.00" fill="#1a1a1a"> &#160;</text>
<text xml:space="preserve" text-anchor="start" x="397.12" y="-412.5" font-family="Helvetica,sans-Serif" font-weight="bold" font-size="9.00" fill="#1f4e79">P2 · P3 producer</text>
<text xml:space="preserve" text-anchor="start" x="324.38" y="-403.4" font-family="Helvetica,sans-Serif" font-size="9.00" fill="#5c5c5c">Fence synth first producer (CP5)</text>
<text xml:space="preserve" text-anchor="start" x="336" y="-394.4" font-family="Helvetica,sans-Serif" font-size="9.00" fill="#5c5c5c">Axiomatic + BP&#45;D in v1.0.1</text>
</g>
<!-- cascade&#45;&gt;protocols -->
<!-- validator&#45;&gt;guard -->
<g id="edge25" class="edge">
<title>validator&#45;&gt;guard</title>
<path fill="none" stroke="#1a1a1a" stroke-width="0.9" stroke-dasharray="5,2" d="M245.97,-543.27C260.26,-545.79 275.06,-548.27 289,-550.37 388.15,-565.33 417.61,-546.44 513,-577.37 536.19,-584.89 560.08,-597.65 579.3,-609.38"/>
<polygon fill="#1a1a1a" stroke="#1a1a1a" stroke-width="0.9" points="585.23,-613.06 577.62,-612.04 583.19,-611.79 579.28,-609.37 579.28,-609.37 579.28,-609.37 583.19,-611.79 580.95,-606.69 585.23,-613.06"/>
<text xml:space="preserve" text-anchor="middle" x="561.26" y="-578.57" font-family="Helvetica,sans-Serif" font-size="9.00" fill="#5c5c5c">admit/reject</text>
</g>
<!-- deferred -->
<g id="node12" class="node">
<title>deferred</title>
<path fill="white" stroke="#1f4e79" stroke-width="1.2" d="M229.96,-430.59C229.96,-430.59 42.04,-430.59 42.04,-430.59 36.04,-430.59 30.04,-424.59 30.04,-418.59 30.04,-418.59 30.04,-396.31 30.04,-396.31 30.04,-390.31 36.04,-384.31 42.04,-384.31 42.04,-384.31 229.96,-384.31 229.96,-384.31 235.96,-384.31 241.96,-390.31 241.96,-396.31 241.96,-396.31 241.96,-418.59 241.96,-418.59 241.96,-424.59 235.96,-430.59 229.96,-430.59"/>
<text xml:space="preserve" text-anchor="start" x="43" y="-412.5" font-family="Helvetica,sans-Serif" font-weight="bold" font-size="11.00" fill="#1a1a1a">deferred_discoveries.jsonl</text>
<text xml:space="preserve" text-anchor="start" x="181.75" y="-412.5" font-family="Helvetica,sans-Serif" font-size="11.00" fill="#1a1a1a"> &#160;</text>
<text xml:space="preserve" text-anchor="start" x="187.75" y="-412.5" font-family="Helvetica,sans-Serif" font-weight="bold" font-size="9.00" fill="#1f4e79">P2 · CP10</text>
<text xml:space="preserve" text-anchor="start" x="89.5" y="-403.4" font-family="Helvetica,sans-Serif" font-size="9.00" fill="#5c5c5c">BP&#45;D adjacent&#45;gap log</text>
<text xml:space="preserve" text-anchor="start" x="77.88" y="-394.4" font-family="Helvetica,sans-Serif" font-size="9.00" fill="#5c5c5c">hash&#45;chained at PreToolUse</text>
</g>
<!-- validator&#45;&gt;deferred -->
<!-- chain&#45;&gt;protocols -->
<!-- framework_query -->
<g id="node14" class="node">
<title>framework_query</title>
<path fill="white" stroke="#6a3083" stroke-width="1.2" d="M179.83,-320.56C179.83,-320.56 42.17,-320.56 42.17,-320.56 36.17,-320.56 30.17,-314.56 30.17,-308.56 30.17,-308.56 30.17,-286.28 30.17,-286.28 30.17,-280.28 36.17,-274.28 42.17,-274.28 42.17,-274.28 179.83,-274.28 179.83,-274.28 185.83,-274.28 191.83,-280.28 191.83,-286.28 191.83,-286.28 191.83,-308.56 191.83,-308.56 191.83,-314.56 185.83,-320.56 179.83,-320.56"/>
<text xml:space="preserve" text-anchor="start" x="43.5" y="-302.47" font-family="Helvetica,sans-Serif" font-weight="bold" font-size="11.00" fill="#1a1a1a">Framework Query</text>
<text xml:space="preserve" text-anchor="start" x="136.5" y="-302.47" font-family="Helvetica,sans-Serif" font-size="11.00" fill="#1a1a1a"> &#160;</text>
<text xml:space="preserve" text-anchor="start" x="142.5" y="-302.47" font-family="Helvetica,sans-Serif" font-weight="bold" font-size="9.00" fill="#6a3083">P3 · CP9</text>
<text xml:space="preserve" text-anchor="start" x="43.12" y="-293.37" font-family="Helvetica,sans-Serif" font-size="9.00" fill="#5c5c5c">PreToolUse · one advisory per op</text>
<text xml:space="preserve" text-anchor="start" x="52.88" y="-284.37" font-family="Helvetica,sans-Serif" font-size="9.00" fill="#5c5c5c">verdict&#45;filtered · never blocks</text>
</g>
<!-- chain&#45;&gt;framework_query -->
<!-- protocols&#45;&gt;deferred -->
<!-- protocols&#45;&gt;framework_query -->
<g id="edge27" class="edge">
<title>protocols&#45;&gt;framework_query</title>
<path fill="none" stroke="#1a1a1a" stroke-width="0.9" stroke-dasharray="5,2" d="M331.51,-383.8C286.31,-366.3 223.75,-342.08 176.81,-323.9"/>
<polygon fill="#1a1a1a" stroke="#1a1a1a" stroke-width="0.9" points="170.43,-321.43 178.1,-321.02 172.67,-322.3 176.96,-323.96 176.96,-323.96 176.96,-323.96 172.67,-322.3 175.82,-326.9 170.43,-321.43"/>
<text xml:space="preserve" text-anchor="middle" x="270.49" y="-348.76" font-family="Helvetica,sans-Serif" font-size="9.00" fill="#5c5c5c">query</text>
</g>
<!-- spot_check -->
<g id="node15" class="node">
<title>spot_check</title>
<path fill="white" stroke="#6a3083" stroke-width="1.2" d="M620.46,-320.56C620.46,-320.56 477.54,-320.56 477.54,-320.56 471.54,-320.56 465.54,-314.56 465.54,-308.56 465.54,-308.56 465.54,-286.28 465.54,-286.28 465.54,-280.28 471.54,-274.28 477.54,-274.28 477.54,-274.28 620.46,-274.28 620.46,-274.28 626.46,-274.28 632.46,-280.28 632.46,-286.28 632.46,-286.28 632.46,-308.56 632.46,-308.56 632.46,-314.56 626.46,-320.56 620.46,-320.56"/>
<text xml:space="preserve" text-anchor="start" x="478.5" y="-302.47" font-family="Helvetica,sans-Serif" font-weight="bold" font-size="11.00" fill="#1a1a1a">Layer 8 spot&#45;check</text>
<text xml:space="preserve" text-anchor="start" x="577.5" y="-302.47" font-family="Helvetica,sans-Serif" font-size="11.00" fill="#1a1a1a"> &#160;</text>
<text xml:space="preserve" text-anchor="start" x="583.5" y="-302.47" font-family="Helvetica,sans-Serif" font-weight="bold" font-size="9.00" fill="#6a3083">P3 · CP8</text>
<text xml:space="preserve" text-anchor="start" x="491.62" y="-293.37" font-family="Helvetica,sans-Serif" font-size="9.00" fill="#5c5c5c">10% → 5% at 30d · BP&#45;D 2×</text>
<text xml:space="preserve" text-anchor="start" x="507.38" y="-284.37" font-family="Helvetica,sans-Serif" font-size="9.00" fill="#5c5c5c">episteme review CLI</text>
</g>
<!-- protocols&#45;&gt;spot_check -->
<!-- pending -->
<g id="node13" class="node">
<title>pending</title>
<path fill="white" stroke="#1f4e79" d="M879.09,-430.59C879.09,-430.59 736.91,-430.59 736.91,-430.59 730.91,-430.59 724.91,-424.59 724.91,-418.59 724.91,-418.59 724.91,-396.31 724.91,-396.31 724.91,-390.31 730.91,-384.31 736.91,-384.31 736.91,-384.31 879.09,-384.31 879.09,-384.31 885.09,-384.31 891.09,-390.31 891.09,-396.31 891.09,-396.31 891.09,-418.59 891.09,-418.59 891.09,-424.59 885.09,-430.59 879.09,-430.59"/>
<text xml:space="preserve" text-anchor="start" x="737.88" y="-412.5" font-family="Helvetica,sans-Serif" font-weight="bold" font-size="11.00" fill="#1a1a1a">pending_contracts</text>
<text xml:space="preserve" text-anchor="start" x="836.12" y="-412.5" font-family="Helvetica,sans-Serif" font-size="11.00" fill="#1a1a1a"> &#160;</text>
<text xml:space="preserve" text-anchor="start" x="842.12" y="-412.5" font-family="Helvetica,sans-Serif" font-weight="bold" font-size="9.00" fill="#1f4e79">P2 · CP7</text>
<text xml:space="preserve" text-anchor="start" x="757.75" y="-403.4" font-family="Helvetica,sans-Serif" font-size="9.00" fill="#5c5c5c">Layer 6 write · 72h grace</text>
<text xml:space="preserve" text-anchor="start" x="752.12" y="-394.4" font-family="Helvetica,sans-Serif" font-size="9.00" fill="#5c5c5c">idempotent · collision&#45;reject</text>
</g>
<!-- deferred&#45;&gt;pending -->
<!-- phase12 -->
<g id="node16" class="node">
<title>phase12</title>
<path fill="white" stroke="#6a3083" stroke-width="1.2" d="M369.08,-320.56C369.08,-320.56 232.92,-320.56 232.92,-320.56 226.92,-320.56 220.92,-314.56 220.92,-308.56 220.92,-308.56 220.92,-286.28 220.92,-286.28 220.92,-280.28 226.92,-274.28 232.92,-274.28 232.92,-274.28 369.08,-274.28 369.08,-274.28 375.08,-274.28 381.08,-280.28 381.08,-286.28 381.08,-286.28 381.08,-308.56 381.08,-308.56 381.08,-314.56 375.08,-320.56 369.08,-320.56"/>
<text xml:space="preserve" text-anchor="start" x="233.88" y="-302.47" font-family="Helvetica,sans-Serif" font-weight="bold" font-size="11.00" fill="#1a1a1a">Phase 12 audit</text>
<text xml:space="preserve" text-anchor="start" x="310.38" y="-302.47" font-family="Helvetica,sans-Serif" font-size="11.00" fill="#1a1a1a"> &#160;</text>
<text xml:space="preserve" text-anchor="start" x="316.38" y="-302.47" font-family="Helvetica,sans-Serif" font-weight="bold" font-size="9.00" fill="#6a3083">P3 · shipped</text>
<text xml:space="preserve" text-anchor="start" x="258.25" y="-293.37" font-family="Helvetica,sans-Serif" font-size="9.00" fill="#5c5c5c">chain_integrity gated</text>
<text xml:space="preserve" text-anchor="start" x="241.38" y="-284.37" font-family="Helvetica,sans-Serif" font-size="9.00" fill="#5c5c5c">friction&#45;weighted axis rescore</text>
</g>
<!-- deferred&#45;&gt;phase12 -->
<!-- guide_cli -->
<g id="node17" class="node">
<title>guide_cli</title>
<path fill="white" stroke="#6a3083" d="M796.71,-320.56C796.71,-320.56 673.29,-320.56 673.29,-320.56 667.29,-320.56 661.29,-314.56 661.29,-308.56 661.29,-308.56 661.29,-286.28 661.29,-286.28 661.29,-280.28 667.29,-274.28 673.29,-274.28 673.29,-274.28 796.71,-274.28 796.71,-274.28 802.71,-274.28 808.71,-280.28 808.71,-286.28 808.71,-286.28 808.71,-308.56 808.71,-308.56 808.71,-314.56 802.71,-320.56 796.71,-320.56"/>
<text xml:space="preserve" text-anchor="start" x="674.25" y="-302.47" font-family="Helvetica,sans-Serif" font-weight="bold" font-size="11.00" fill="#1a1a1a">episteme guide</text>
<text xml:space="preserve" text-anchor="start" x="753.75" y="-302.47" font-family="Helvetica,sans-Serif" font-size="11.00" fill="#1a1a1a"> &#160;</text>
<text xml:space="preserve" text-anchor="start" x="759.75" y="-302.47" font-family="Helvetica,sans-Serif" font-weight="bold" font-size="9.00" fill="#6a3083">P3 · CP9</text>
<text xml:space="preserve" text-anchor="start" x="695.62" y="-293.37" font-family="Helvetica,sans-Serif" font-size="9.00" fill="#5c5c5c">SessionStart digest</text>
<text xml:space="preserve" text-anchor="start" x="676.5" y="-284.37" font-family="Helvetica,sans-Serif" font-size="9.00" fill="#5c5c5c">&#45;&#45;context · &#45;&#45;since · &#45;&#45;deferred</text>
</g>
<!-- deferred&#45;&gt;guide_cli -->
<g id="edge28" class="edge">
<title>deferred&#45;&gt;guide_cli</title>
<path fill="none" stroke="#1a1a1a" stroke-width="0.9" stroke-dasharray="5,2" d="M242.42,-389.59C368.71,-369.4 571.66,-336.34 647,-320.56 649.17,-320.11 651.36,-319.63 653.58,-319.15"/>
<polygon fill="#1a1a1a" stroke="#1a1a1a" stroke-width="0.9" points="660.09,-317.69 653.94,-322.3 657.74,-318.22 653.26,-319.22 653.26,-319.22 653.26,-319.22 657.74,-318.22 652.57,-316.15 660.09,-317.69"/>
<text xml:space="preserve" text-anchor="middle" x="507.17" y="-348.76" font-family="Helvetica,sans-Serif" font-size="9.00" fill="#5c5c5c">&#45;&#45;deferred</text>
</g>
<!-- pending&#45;&gt;guide_cli -->
<!-- framework_query&#45;&gt;doxa_disp -->
<g id="edge35" class="edge">
<title>framework_query&#45;&gt;doxa_disp</title>
<path fill="none" stroke="#6a3083" stroke-width="0.9" stroke-dasharray="5,2" d="M192.2,-318.24C196.85,-319.1 201.48,-319.88 206,-320.56 307.44,-335.79 1057.02,-309.31 1127,-384.31 1185.78,-447.3 1092.56,-494.47 1027,-550.37 921.52,-640.31 892,-670.83 759,-709.9 709.5,-724.44 576.17,-702.28 527,-717.9 494.03,-728.37 461.55,-751.38 439.94,-769"/>
<polygon fill="#6a3083" stroke="#6a3083" stroke-width="0.9" points="434.71,-773.35 438.08,-766.45 436.56,-771.81 440.09,-768.87 440.09,-768.87 440.09,-768.87 436.56,-771.81 442.11,-771.3 434.71,-773.35"/>
<text xml:space="preserve" text-anchor="start" x="1085.1" y="-524.56" font-family="Helvetica,sans-Serif" font-style="italic" font-size="9.00" fill="#6a3083">advisory · never blocks</text>
</g>
<!-- framework_query&#45;&gt;spot_check -->
<!-- praxis_proc -->
<g id="node18" class="node">
<title>praxis_proc</title>
<path fill="white" stroke="#1a1a1a" stroke-width="0.9" d="M201.71,-177.78C201.71,-177.78 144.29,-177.78 144.29,-177.78 138.29,-177.78 132.29,-171.78 132.29,-165.78 132.29,-165.78 132.29,-152.5 132.29,-152.5 132.29,-146.5 138.29,-140.5 144.29,-140.5 144.29,-140.5 201.71,-140.5 201.71,-140.5 207.71,-140.5 213.71,-146.5 213.71,-152.5 213.71,-152.5 213.71,-165.78 213.71,-165.78 213.71,-171.78 207.71,-177.78 201.71,-177.78"/>
<text xml:space="preserve" text-anchor="start" x="151.62" y="-159.69" font-family="Helvetica,sans-Serif" font-weight="bold" font-size="11.00" fill="#1a1a1a">Process</text>
<text xml:space="preserve" text-anchor="start" x="145.25" y="-150.59" font-family="Helvetica,sans-Serif" font-size="9.00" fill="#5c5c5c">fork · exec · fd</text>
</g>
<!-- framework_query&#45;&gt;praxis_proc -->
<!-- spot_check&#45;&gt;phase12 -->
<!-- spot_check&#45;&gt;phase12 -->
<g id="edge29" class="edge">
<title>spot_check&#45;&gt;phase12</title>
<path fill="none" stroke="#1a1a1a" stroke-width="0.9" d="M465.05,-297.42C440.7,-297.42 414.05,-297.42 389.43,-297.42"/>
<polygon fill="#1a1a1a" stroke="#1a1a1a" stroke-width="0.9" points="382.62,-297.42 389.62,-294.27 385.02,-297.42 389.62,-297.42 389.62,-297.42 389.62,-297.42 385.02,-297.42 389.62,-300.57 382.62,-297.42"/>
<text xml:space="preserve" text-anchor="middle" x="423.31" y="-301.62" font-family="Helvetica,sans-Serif" font-size="9.00" fill="#5c5c5c">verdict queue</text>
</g>
<!-- spot_check&#45;&gt;praxis_state -->
<!-- phase12&#45;&gt;guard -->
<g id="edge30" class="edge">
<title>phase12&#45;&gt;guard</title>
<path fill="none" stroke="#6a3083" stroke-width="0.9" stroke-dasharray="5,2" d="M381.56,-310.38C404.03,-313.7 428.47,-317.29 451,-320.56 550.3,-334.97 832.25,-308.52 898,-384.31 977.54,-476 794.27,-567.44 688.06,-610.6"/>
<polygon fill="#6a3083" stroke="#6a3083" stroke-width="0.9" points="681.88,-613.09 687.19,-607.55 684.11,-612.19 688.37,-610.47 688.37,-610.47 688.37,-610.47 684.11,-612.19 689.55,-613.4 681.88,-613.09"/>
<text xml:space="preserve" text-anchor="middle" x="933.53" y="-468.54" font-family="Helvetica,sans-Serif" font-size="9.00" fill="#6a3083">profile&#45;axis</text>
<text xml:space="preserve" text-anchor="middle" x="933.53" y="-458.79" font-family="Helvetica,sans-Serif" font-size="9.00" fill="#6a3083">rescore</text>
</g>
<!-- phase12&#45;&gt;guide_cli -->
<!-- praxis_remote -->
<g id="node20" class="node">
<title>praxis_remote</title>
<path fill="white" stroke="#1a1a1a" stroke-width="0.9" d="M347.71,-177.78C347.71,-177.78 254.29,-177.78 254.29,-177.78 248.29,-177.78 242.29,-171.78 242.29,-165.78 242.29,-165.78 242.29,-152.5 242.29,-152.5 242.29,-146.5 248.29,-140.5 254.29,-140.5 254.29,-140.5 347.71,-140.5 347.71,-140.5 353.71,-140.5 359.71,-146.5 359.71,-152.5 359.71,-152.5 359.71,-165.78 359.71,-165.78 359.71,-171.78 353.71,-177.78 347.71,-177.78"/>
<text xml:space="preserve" text-anchor="start" x="264.62" y="-159.69" font-family="Helvetica,sans-Serif" font-weight="bold" font-size="11.00" fill="#1a1a1a">Remote effect</text>
<text xml:space="preserve" text-anchor="start" x="255.25" y="-150.59" font-family="Helvetica,sans-Serif" font-size="9.00" fill="#5c5c5c">push · publish · deploy</text>
</g>
<!-- phase12&#45;&gt;praxis_remote -->
<!-- praxis_proc&#45;&gt;praxis_state -->
<!-- praxis_state&#45;&gt;chain -->
<g id="edge40" class="edge">
<title>praxis_state&#45;&gt;chain</title>
<path fill="none" stroke="#1f4e79" stroke-width="0.9" stroke-dasharray="5,2" d="M524.99,-160.36C612.49,-161.98 779.18,-170.79 816,-213.78 846.87,-249.82 842.07,-280.91 816,-320.56 802.06,-341.76 747.61,-364.45 699.18,-381.18"/>
<polygon fill="#1f4e79" stroke="#1f4e79" stroke-width="0.9" points="692.81,-383.36 698.42,-378.12 695.09,-382.58 699.44,-381.1 699.44,-381.1 699.44,-381.1 695.09,-382.58 700.45,-384.08 692.81,-383.36"/>
<text xml:space="preserve" text-anchor="start" x="837.39" y="-294.8" font-family="Helvetica,sans-Serif" font-size="9.00" fill="#1f4e79">PostToolUse · hash&#45;chained</text>
</g>
<!-- praxis_state&#45;&gt;praxis_remote -->
</g>
</svg>
